<svg width="533" height="141" viewBox="0 0 533 141" fill="none" xmlns="http://www.w3.org/2000/svg">
<path fill-rule="evenodd" clip-rule="evenodd" d="M2.59244 79.8887C-5.80546 64.2472 8.72715 55.0002 10.5701 53.8272C10.8727 53.6347 11.817 30.8612 33.76 33.7826C36.5115 34.1487 37.3162 33.9533 37.326 36.7718C37.3445 42.291 37.5526 104.569 37.2868 105.768C37.2263 106.043 15.3242 115.124 10.9638 88.4472C10.5603 85.9775 8.82919 87.1224 5.69266 83.7027C4.91213 82.8521 4.97208 82.8579 3.13605 80.4945C2.95504 80.2928 2.77345 80.0905 2.59244 79.8887Z" fill="#FF6161"/>
<path fill-rule="evenodd" clip-rule="evenodd" d="M76.5719 61.0545C85.0203 76.79 70.4003 86.0925 68.5463 87.2726C68.2419 87.4663 67.2919 110.377 45.2171 107.438C42.4491 107.069 41.6395 107.266 41.6296 104.43C41.6111 98.8781 41.4017 36.2257 41.6691 35.0202C41.73 34.7433 63.7637 25.6072 68.1502 52.4446C68.5562 54.9291 70.2977 53.7774 73.4531 57.2176C74.2383 58.0733 74.178 58.0675 76.025 60.4451C76.2071 60.648 76.3898 60.8515 76.5719 61.0545Z" fill="#FF6161"/>
<path fill-rule="evenodd" clip-rule="evenodd" d="M77.075 56.7428C77.4733 57.1428 77.8716 57.5423 78.27 57.9423C78.1812 57.84 77.7125 57.3049 77.075 56.7428Z" fill="#CC5656" fill-opacity="0.2"/>
<path d="M123.344 103L110.842 79.124H110.748V103H89.8799V36.448H120.9C126.289 36.448 130.895 37.4193 134.718 39.362C138.541 41.242 141.392 43.8427 143.272 47.164C145.215 50.4227 146.186 54.12 146.186 58.256C146.186 62.7053 144.933 66.6533 142.426 70.1C139.982 73.5467 136.441 76.022 131.804 77.526L146.28 103H123.344ZM110.748 65.212H119.02C121.025 65.212 122.529 64.7733 123.532 63.896C124.535 62.956 125.036 61.5147 125.036 59.572C125.036 57.8173 124.503 56.4387 123.438 55.436C122.435 54.4333 120.963 53.932 119.02 53.932H110.748V65.212ZM173.721 53.086V61.264H194.401V76.962H173.721V86.362H197.221V103H152.853V36.448H197.221V53.086H173.721ZM285.079 36.448V103H264.305V69.818L254.059 103H236.199L225.953 69.818V103H205.085V36.448H230.653L245.317 76.398L259.605 36.448H285.079ZM315.363 36.448V103H294.495V36.448H315.363ZM388.614 103H367.746L345.656 69.536V103H324.788V36.448H345.656L367.746 70.476V36.448H388.614V103ZM438.932 87.396H409.04L403.306 103H396.35L420.32 38.14H427.746L451.622 103H444.666L438.932 87.396ZM436.958 81.944L423.986 46.412L411.014 81.944H436.958ZM468.762 37.294V103H462.182V37.294H468.762ZM506.881 103.658C498.922 103.658 492.342 101.809 487.141 98.112C482.002 94.352 479.213 88.8687 478.775 81.662H500.959C501.272 85.4847 502.964 87.396 506.035 87.396C507.163 87.396 508.103 87.1453 508.855 86.644C509.669 86.08 510.077 85.234 510.077 84.106C510.077 82.5393 509.231 81.286 507.539 80.346C505.847 79.3433 503.215 78.2153 499.643 76.962C495.381 75.458 491.841 73.9853 489.021 72.544C486.263 71.1027 483.882 69.0033 481.877 66.246C479.871 63.4887 478.9 59.948 478.963 55.624C478.963 51.3 480.059 47.634 482.253 44.626C484.509 41.5553 487.548 39.2367 491.371 37.67C495.256 36.1033 499.611 35.32 504.437 35.32C512.583 35.32 519.038 37.2 523.801 40.96C528.626 44.72 531.164 50.0153 531.415 56.846H508.949C508.886 54.966 508.416 53.6187 507.539 52.804C506.661 51.9893 505.596 51.582 504.343 51.582C503.465 51.582 502.745 51.8953 502.181 52.522C501.617 53.086 501.335 53.9007 501.335 54.966C501.335 56.47 502.149 57.7233 503.779 58.726C505.471 59.666 508.134 60.8253 511.769 62.204C515.967 63.7707 519.414 65.2747 522.109 66.716C524.866 68.1573 527.247 70.1627 529.253 72.732C531.258 75.3013 532.261 78.5287 532.261 82.414C532.261 86.4873 531.258 90.1533 529.253 93.412C527.247 96.608 524.333 99.1147 520.511 100.932C516.688 102.749 512.145 103.658 506.881 103.658Z" fill="black"/>
</svg>
